<?xml version="1.0" encoding="us-ascii" standalone="no"?><svg xmlns="http://www.w3.org/2000/svg" xmlns:xlink="http://www.w3.org/1999/xlink" contentStyleType="text/css" height="291px" preserveAspectRatio="none" style="width:3996px;height:291px;background:#FFFFFF;" version="1.1" viewBox="0 0 3996 291" width="3996px" zoomAndPan="magnify"><defs/><g><text fill="#000000" font-family="sans-serif" font-size="14" font-weight="bold" lengthAdjust="spacing" textLength="391" x="1795.5" y="24.9659">Diagrama de Casos de Uso - Sistema de Reserva de Salas</text><!--cluster Sistema de Reserva de Salas--><g id="cluster_Sistema de Reserva de Salas"><path d="M8.5,146.5679 L203.5,146.5679 A3.75,3.75 0 0 1 206,149.0679 L213,171.6358 L3986.5,171.6358 A2.5,2.5 0 0 1 3989,174.1358 L3989,282.0679 A2.5,2.5 0 0 1 3986.5,284.5679 L8.5,284.5679 A2.5,2.5 0 0 1 6,282.0679 L6,149.0679 A2.5,2.5 0 0 1 8.5,146.5679 " fill="none" style="stroke:#000000;stroke-width:1.5;"/><line style="stroke:#000000;stroke-width:1.5;" x1="6" x2="213" y1="171.6358" y2="171.6358"/><text fill="#000000" font-family="sans-serif" font-size="14" font-weight="bold" lengthAdjust="spacing" textLength="194" x="10" y="163.5339">Sistema de Reserva de Salas</text></g><g id="elem_UC1"><ellipse cx="1253.8751" cy="226.6429" fill="#F1F1F1" rx="103.3751" ry="23.075" style="stroke:#181818;stroke-width:0.5;"/><text fill="#000000" font-family="sans-serif" font-size="14" lengthAdjust="spacing" textLength="163" x="1169.3751" y="231.3759">Cadastrar-se no sistema</text></g><g id="elem_UC2"><ellipse cx="980.9483" cy="226.3576" fill="#F1F1F1" rx="134.4483" ry="29.2897" style="stroke:#181818;stroke-width:0.5;"/><text fill="#000000" font-family="sans-serif" font-size="14" lengthAdjust="spacing" textLength="233" x="864.4483" y="229.7896">Consultar disponibilidade de salas</text></g><g id="elem_UC3"><ellipse cx="709.1156" cy="226.391" fill="#F1F1F1" rx="102.1156" ry="22.8231" style="stroke:#181818;stroke-width:0.5;"/><text fill="#000000" font-family="sans-serif" font-size="14" lengthAdjust="spacing" textLength="160" x="626.1156" y="231.124">Realizar reserva de sala</text></g><g id="elem_UC4"><ellipse cx="488.9683" cy="226.6616" fill="#F1F1F1" rx="83.4683" ry="19.0937" style="stroke:#181818;stroke-width:0.5;"/><text fill="#000000" font-family="sans-serif" font-size="14" lengthAdjust="spacing" textLength="113" x="429.4683" y="231.3946">Cancelar reserva</text></g><g id="elem_UC5"><ellipse cx="195.7876" cy="226.7254" fill="#F1F1F1" rx="173.7876" ry="37.1575" style="stroke:#181818;stroke-width:0.5;"/><text fill="#000000" font-family="sans-serif" font-size="14" lengthAdjust="spacing" textLength="316" x="37.7876" y="230.1574">Receber confirma&#231;&#227;o de reserva/cancelamento</text></g><g id="elem_UC6"><ellipse cx="1489.2398" cy="226.8159" fill="#F1F1F1" rx="96.7398" ry="21.748" style="stroke:#181818;stroke-width:0.5;"/><text fill="#000000" font-family="sans-serif" font-size="14" lengthAdjust="spacing" textLength="147" x="1412.7398" y="231.5488">Cadastrar novas salas</text></g><g id="elem_UC7"><ellipse cx="2787.2285" cy="226.5136" fill="#F1F1F1" rx="125.2285" ry="27.4457" style="stroke:#181818;stroke-width:0.5;"/><text fill="#000000" font-family="sans-serif" font-size="14" lengthAdjust="spacing" textLength="213" x="2679.4259" y="230.5604">Atualizar informa&#231;&#245;es das salas</text></g><g id="elem_UC8"><ellipse cx="2506.2207" cy="226.6121" fill="#F1F1F1" rx="120.7207" ry="26.5441" style="stroke:#181818;stroke-width:0.5;"/><text fill="#000000" font-family="sans-serif" font-size="14" lengthAdjust="spacing" textLength="203" x="2402.5189" y="231.0371">Gerenciar reservas pendentes</text></g><g id="elem_UC9"><ellipse cx="2226.9163" cy="226.6512" fill="#F1F1F1" rx="123.4163" ry="27.0833" style="stroke:#181818;stroke-width:0.5;"/><text fill="#000000" font-family="sans-serif" font-size="14" lengthAdjust="spacing" textLength="209" x="2120.7622" y="230.85">Consultar hist&#243;rico de reservas</text></g><g id="elem_UC13"><ellipse cx="1966.1156" cy="226.391" fill="#F1F1F1" rx="102.1156" ry="22.8231" style="stroke:#181818;stroke-width:0.5;"/><text fill="#000000" font-family="sans-serif" font-size="14" lengthAdjust="spacing" textLength="160" x="1883.1156" y="231.124">Permitir reserva de sala</text></g><g id="elem_UC14"><ellipse cx="1725.2183" cy="226.8116" fill="#F1F1F1" rx="104.2183" ry="23.2437" style="stroke:#181818;stroke-width:0.5;"/><text fill="#000000" font-family="sans-serif" font-size="14" lengthAdjust="spacing" textLength="165" x="1639.7183" y="231.5446">Cancelar reserva de sala</text></g><g id="elem_UC10"><ellipse cx="3089.8737" cy="226.5427" fill="#F1F1F1" rx="142.8737" ry="30.9747" style="stroke:#181818;stroke-width:0.5;"/><text fill="#000000" font-family="sans-serif" font-size="14" lengthAdjust="spacing" textLength="251" x="2964.3737" y="229.9746">Confirmar reservas automaticamente</text></g><g id="elem_UC11"><ellipse cx="3773.8888" cy="226.7457" fill="#F1F1F1" rx="198.8888" ry="42.1778" style="stroke:#181818;stroke-width:0.5;"/><text fill="#000000" font-family="sans-serif" font-size="14" lengthAdjust="spacing" textLength="368" x="3589.8888" y="230.1776">Notificar usu&#225;rios sobre confirma&#231;&#227;o ou cancelamento</text></g><g id="elem_UC12"><ellipse cx="3403.8807" cy="226.5441" fill="#F1F1F1" rx="135.3807" ry="29.4761" style="stroke:#181818;stroke-width:0.5;"/><text fill="#000000" font-family="sans-serif" font-size="14" lengthAdjust="spacing" textLength="235" x="3286.3807" y="229.976">Atualizar status de disponibilidade</text></g><!--entity Usuario--><g id="elem_Usuario"><ellipse cx="709" cy="54.0679" fill="#F1F1F1" rx="8" ry="8" style="stroke:#181818;stroke-width:0.5;"/><path d="M709,62.0679 L709,89.0679 M696,70.0679 L722,70.0679 M709,89.0679 L696,104.0679 M709,89.0679 L722,104.0679 " fill="none" style="stroke:#181818;stroke-width:0.5;"/><text fill="#000000" font-family="sans-serif" font-size="14" lengthAdjust="spacing" textLength="52" x="683" y="120.5339">Usuario</text></g><!--entity Administrador--><g id="elem_Administrador"><ellipse cx="2096" cy="54.0679" fill="#F1F1F1" rx="8" ry="8" style="stroke:#181818;stroke-width:0.5;"/><path d="M2096,62.0679 L2096,89.0679 M2083,70.0679 L2109,70.0679 M2096,89.0679 L2083,104.0679 M2096,89.0679 L2109,104.0679 " fill="none" style="stroke:#181818;stroke-width:0.5;"/><text fill="#000000" font-family="sans-serif" font-size="14" lengthAdjust="spacing" textLength="97" x="2047.5" y="120.5339">Administrador</text></g><!--entity Sistema--><g id="elem_Sistema"><ellipse cx="3404" cy="54.0679" fill="#F1F1F1" rx="8" ry="8" style="stroke:#181818;stroke-width:0.5;"/><path d="M3404,62.0679 L3404,89.0679 M3391,70.0679 L3417,70.0679 M3404,89.0679 L3391,104.0679 M3404,89.0679 L3417,104.0679 " fill="none" style="stroke:#181818;stroke-width:0.5;"/><text fill="#000000" font-family="sans-serif" font-size="14" lengthAdjust="spacing" textLength="53" x="3377.5" y="120.5339">Sistema</text></g><!--link Usuario to UC1--><g id="link_Usuario_UC1"><path d="M735.21,87.6079 C815.91,92.6279 1059.62,109.8279 1133,138.5679 C1171.31,153.5679 1204.2477,179.4869 1227.0877,200.0169 " fill="none" id="Usuario-to-UC1" style="stroke:#181818;stroke-width:1.0;"/><polygon fill="#181818" points="1231.55,204.0279,1227.5306,195.0366,1227.8314,200.6854,1222.1826,200.9863,1231.55,204.0279" style="stroke:#181818;stroke-width:1.0;"/></g><!--link Usuario to UC2--><g id="link_Usuario_UC2"><path d="M735.12,96.5479 C759.68,106.6179 797.31,122.6279 829,138.5679 C866.08,157.2179 901.6766,177.6451 931.6466,195.5151 " fill="none" id="Usuario-to-UC2" style="stroke:#181818;stroke-width:1.0;"/><polygon fill="#181818" points="936.8,198.5879,931.1184,190.5431,932.5055,196.0272,927.0213,197.4143,936.8,198.5879" style="stroke:#181818;stroke-width:1.0;"/></g><!--link Usuario to UC3--><g id="link_Usuario_UC3"><path d="M709,124.9279 C709,150.2379 709,176.3579 709,197.4179 " fill="none" id="Usuario-to-UC3" style="stroke:#181818;stroke-width:1.0;"/><polygon fill="#181818" points="709,203.4179,713,194.4179,709,198.4179,705,194.4179,709,203.4179" style="stroke:#181818;stroke-width:1.0;"/></g><!--link Usuario to UC4--><g id="link_Usuario_UC4"><path d="M682.82,95.0579 C657.94,104.1779 619.98,119.6379 590,138.5679 C557.91,158.8379 529.746,184.6187 510.586,203.5687 " fill="none" id="Usuario-to-UC4" style="stroke:#181818;stroke-width:1.0;"/><polygon fill="#181818" points="506.32,207.7879,515.5317,204.3031,509.875,204.2719,509.9061,198.6152,506.32,207.7879" style="stroke:#181818;stroke-width:1.0;"/></g><!--link Usuario to UC5--><g id="link_Usuario_UC5"><path d="M682.68,88.0179 C627.17,92.6279 494.48,106.3579 388,138.5679 C343.34,152.0779 300.9095,171.0305 264.1695,189.3505 " fill="none" id="Usuario-to-UC5" style="stroke:#181818;stroke-width:1.0;"/><polygon fill="#181818" points="258.8,192.0279,268.6392,191.5914,263.2746,189.7967,265.0693,184.4321,258.8,192.0279" style="stroke:#181818;stroke-width:1.0;"/></g><!--link Administrador to UC6--><g id="link_Administrador_UC6"><path d="M2047.14,87.9679 C1939.24,92.6879 1683.87,106.9479 1604,138.5679 C1566.06,153.5879 1534.1198,180.5735 1512.7898,201.2335 " fill="none" id="Administrador-to-UC6" style="stroke:#181818;stroke-width:1.0;"/><polygon fill="#181818" points="1508.48,205.4079,1517.7276,202.0195,1512.0715,201.9292,1512.1617,196.2731,1508.48,205.4079" style="stroke:#181818;stroke-width:1.0;"/></g><!--link Administrador to UC7--><g id="link_Administrador_UC7"><path d="M2144.9,87.9479 C2261.3,92.8779 2551.95,107.9579 2644,138.5679 C2685.09,152.2279 2721.9583,175.9005 2749.6383,196.2805 " fill="none" id="Administrador-to-UC7" style="stroke:#181818;stroke-width:1.0;"/><polygon fill="#181818" points="2754.47,199.8379,2749.5941,191.2807,2750.4436,196.8734,2744.8509,197.7229,2754.47,199.8379" style="stroke:#181818;stroke-width:1.0;"/></g><!--link Administrador to UC8--><g id="link_Administrador_UC8"><path d="M2144.69,89.9779 C2200.32,95.6879 2293.31,109.0279 2368,138.5679 C2407.24,154.0879 2442.7217,177.446 2469.5617,197.246 " fill="none" id="Administrador-to-UC8" style="stroke:#181818;stroke-width:1.0;"/><polygon fill="#181818" points="2474.39,200.8079,2469.5221,192.2462,2470.3664,197.8397,2464.7729,198.684,2474.39,200.8079" style="stroke:#181818;stroke-width:1.0;"/></g><!--link Administrador to UC9--><g id="link_Administrador_UC9"><path d="M2132.49,124.9279 C2154.9,148.7879 2178.8828,174.324 2198.5928,195.314 " fill="none" id="Administrador-to-UC9" style="stroke:#181818;stroke-width:1.0;"/><polygon fill="#181818" points="2202.7,199.6879,2199.4552,190.3889,2199.2773,196.043,2193.6233,195.8652,2202.7,199.6879" style="stroke:#181818;stroke-width:1.0;"/></g><!--link Administrador to UC13--><g id="link_Administrador_UC13"><path d="M2059.79,124.9279 C2036.05,150.3979 2009.9809,178.3788 1990.3609,199.4288 " fill="none" id="Administrador-to-UC13" style="stroke:#181818;stroke-width:1.0;"/><polygon fill="#181818" points="1986.27,203.8179,1995.3325,199.9616,1989.6791,200.1603,1989.4803,194.507,1986.27,203.8179" style="stroke:#181818;stroke-width:1.0;"/></g><!--link Administrador to UC14--><g id="link_Administrador_UC14"><path d="M2047.4,90.3579 C1995.86,96.2579 1912.94,109.6279 1847,138.5679 C1809.6,154.9879 1776.748,180.0861 1753.408,200.0661 " fill="none" id="Administrador-to-UC14" style="stroke:#181818;stroke-width:1.0;"/><polygon fill="#181818" points="1748.85,203.9679,1758.2883,201.1538,1752.6483,200.7164,1753.0858,195.0765,1748.85,203.9679" style="stroke:#181818;stroke-width:1.0;"/></g><!--link Sistema to UC10--><g id="link_Sistema_UC10"><path d="M3377.23,93.7879 C3346.29,103.0379 3294.08,119.6879 3251,138.5679 C3211.71,155.7779 3174.291,176.0463 3142.771,194.1763 " fill="none" id="Sistema-to-UC10" style="stroke:#181818;stroke-width:1.0;"/><polygon fill="#181818" points="3137.57,197.1679,3147.3659,196.1479,3141.9042,194.6749,3143.3771,189.2132,3137.57,197.1679" style="stroke:#181818;stroke-width:1.0;"/></g><!--link Sistema to UC11--><g id="link_Sistema_UC11"><path d="M3430.68,94.7679 C3461.33,104.8679 3513.04,122.2279 3557,138.5679 C3599.51,154.3779 3640.7016,170.6986 3679.8916,186.6286 " fill="none" id="Sistema-to-UC11" style="stroke:#181818;stroke-width:1.0;"/><polygon fill="#181818" points="3685.45,188.8879,3678.6187,181.7933,3680.818,187.0051,3675.6062,189.2044,3685.45,188.8879" style="stroke:#181818;stroke-width:1.0;"/></g><!--link Sistema to UC12--><g id="link_Sistema_UC12"><path d="M3404,124.9279 C3404,147.6579 3404,169.8779 3404,190.6479 " fill="none" id="Sistema-to-UC12" style="stroke:#181818;stroke-width:1.0;"/><polygon fill="#181818" points="3404,196.6479,3408,187.6479,3404,191.6479,3400,187.6479,3404,196.6479" style="stroke:#181818;stroke-width:1.0;"/></g><!--SRC=[VLDBJiCm4Dtx5AFkAqWflmqIAX8xX8eumDIPmeZ4hcod2n27GImu0E84lHZJn54Joo1buNb-xsL-3XmgWXl69uSrGacmG6_z_l3eBKpXWNsWxcP9djosFJvWXLufrC4w8JResCRekgpPYCXXQLt4eebI6zGl-4Gm-STs0czA0JIUD7gXBh34lPsRIcGi-4uw0VJmk2X6L6jyKmLqKBBVMCChhhX4SPRFT-QjQZPKBGahVXMHEsIo9qVkoJWPewawS2DdFlRJj287sferknftNxjFkpUDcYFTcTHaWeq6f_cIfTwjt0zJFniIhqCJSsUpjjs_VaZ6buZEXw9RScGq7uhmi25JIZRKyo_oNNsMrk- -7UjXERtcSgYv9rTpuBzwMlpRr9GyLqawRLi7wMCJR8s1TTjJwdN7GzcT3RmMXXEesNt8magBxCfHCYVRG6O-HP5lkmyOclQv91lNwsRgNQduGc0wlMfNTXpFalWaYUT9BBioUcGHFikYvrdq8ejUPb6PLHQMgVIlE2B7AL2am4pz0W00]--></g></svg>